# Blender v2.78 (sub 0) OBJ File: 'card.blend'
# www.blender.org
mtllib card.mtl
o Cube_Cube.001
v -0.020712 -0.198329 0.322480
v -0.020712 0.203609 0.321548
v -0.020712 -0.201435 -0.319374
v -0.020712 0.203609 -0.319312
v -0.000331 -0.198329 0.322480
v -0.000331 0.203609 0.321548
v -0.000331 -0.201435 -0.319374
v -0.000331 0.203609 -0.319312
v -0.020712 -0.209199 -0.304936
v -0.020712 -0.209199 0.305809
v -0.020712 0.209199 0.305809
v -0.020712 0.209199 -0.304936
v -0.000331 -0.209199 0.305809
v -0.000331 -0.209199 -0.304936
v -0.000331 0.209199 -0.304936
v -0.000331 0.209199 0.305809
v -0.020712 -0.186303 0.327138
v -0.020712 0.191830 0.327138
v -0.020712 0.191830 -0.327138
v -0.020712 -0.186303 -0.327138
v -0.000331 0.191830 -0.327138
v -0.000331 -0.186303 -0.327138
v -0.000331 0.191830 0.327138
v -0.000331 -0.186303 0.327138
v -0.000331 0.191830 -0.304936
v -0.000331 -0.186303 -0.304936
v -0.000331 0.191830 0.305809
v -0.000331 -0.186303 0.305809
v -0.020712 0.191830 0.305809
v -0.020712 -0.186303 0.305809
v -0.020712 0.191830 -0.304936
v -0.020712 -0.186303 -0.304936
vn -1.0000 -0.0000 0.0000
vn 0.0000 0.5534 -0.8329
vn 1.0000 -0.0000 0.0000
vn 0.0000 0.4287 0.9034
vn 0.0000 -0.8377 0.5462
vn 0.0000 0.9423 0.3347
vn 0.0000 0.9320 -0.3624
vn 0.0000 1.0000 0.0000
vn 0.0000 -0.8807 -0.4736
vn 0.0000 -1.0000 0.0000
vn 0.0000 -0.3612 0.9325
vn 0.0000 0.0000 1.0000
vn 0.0000 -0.4565 -0.8897
vn 0.0000 0.0000 -1.0000
usemtl None
s off
f 31//1 12//1 4//1 19//1
f 19//2 4//2 8//2 21//2
f 27//3 16//3 6//3 23//3
f 23//4 6//4 2//4 18//4
f 10//5 13//5 5//5 1//5
f 16//6 11//6 2//6 6//6
f 8//7 4//7 12//7 15//7
f 15//8 12//8 11//8 16//8
f 3//9 7//9 14//9 9//9
f 9//10 14//10 13//10 10//10
f 21//3 8//3 15//3 25//3
f 25//3 15//3 16//3 27//3
f 18//1 2//1 11//1 29//1
f 29//1 11//1 12//1 31//1
f 10//1 30//1 32//1 9//1
f 30//1 29//1 31//1 32//1
f 1//1 17//1 30//1 10//1
f 17//1 18//1 29//1 30//1
f 14//3 26//3 28//3 13//3
f 26//3 25//3 27//3 28//3
f 7//3 22//3 26//3 14//3
f 22//3 21//3 25//3 26//3
f 5//11 24//11 17//11 1//11
f 24//12 23//12 18//12 17//12
f 13//3 28//3 24//3 5//3
f 28//3 27//3 23//3 24//3
f 3//13 20//13 22//13 7//13
f 20//14 19//14 21//14 22//14
f 9//1 32//1 20//1 3//1
f 32//1 31//1 19//1 20//1
