# Blender v2.78 (sub 0) OBJ File: 'card.blend'
# www.blender.org
mtllib card.mtl
o Cube_Cube.001
v -0.020712 0.110464 0.322480
v -0.020712 0.512401 0.321548
v -0.020712 0.107358 -0.319374
v -0.020712 0.512401 -0.319312
v -0.000331 0.110464 0.322480
v -0.000331 0.512401 0.321548
v -0.000331 0.107358 -0.319374
v -0.000331 0.512401 -0.319312
v -0.020712 0.099594 -0.304936
v -0.020712 0.099594 0.305809
v -0.020712 0.517992 0.305809
v -0.020712 0.517992 -0.304936
v -0.000331 0.099594 0.305809
v -0.000331 0.099594 -0.304936
v -0.000331 0.517992 -0.304936
v -0.000331 0.517992 0.305809
v -0.020712 0.122490 0.327138
v -0.020712 0.500622 0.327138
v -0.020712 0.500622 -0.327138
v -0.020712 0.122490 -0.327138
v -0.000331 0.500622 -0.327138
v -0.000331 0.122490 -0.327138
v -0.000331 0.500622 0.327138
v -0.000331 0.122490 0.327138
v -0.000331 0.500622 -0.304936
v -0.000331 0.122490 -0.304936
v -0.000331 0.500622 0.305809
v -0.000331 0.122490 0.305809
v -0.020712 0.500622 0.305809
v -0.020712 0.122490 0.305809
v -0.020712 0.500622 -0.304936
v -0.020712 0.122490 -0.304936
vt 1.0003 0.0110
vt 1.0036 0.9990
vt 0.0026 0.9943
vt -0.0008 0.0002
vt 0.3209 0.3234
vt 0.3348 0.3234
vt 0.3303 0.3308
vt 0.3209 0.3348
vt 0.9811 0.3350
vt 0.9913 0.3350
vt 0.9913 0.4997
vt 0.9811 0.4997
vt 0.5134 0.0110
vt 0.4995 0.0110
vt 0.5040 0.0030
vt 0.5134 0.0001
vt 0.0192 0.4997
vt 0.0093 0.4997
vt 0.0093 0.3350
vt 0.0192 0.3350
vt 0.3437 0.3350
vt 0.3437 0.4997
vt 0.3316 0.4997
vt 0.3316 0.3350
vt 0.0001 0.4997
vt 0.0001 0.3350
vt 0.9999 0.3350
vt 0.9999 0.4997
vt 0.4995 0.3234
vt 0.3348 0.0110
vt 0.6658 0.3350
vt 0.6658 0.4997
vt 0.6562 0.4997
vt 0.6562 0.3350
vt 0.5134 0.3348
vt 0.5040 0.3308
vt 0.5134 0.3234
vt 0.3209 0.0001
vt 0.3303 0.0030
vt 0.3209 0.0110
vt 0.0001 0.0110
vt 0.0184 0.0110
vt 0.0184 0.3234
vt 0.0001 0.3234
vt 0.0088 0.0025
vt 0.0184 0.0001
vt 0.8342 0.3234
vt 0.8159 0.3234
vt 0.8159 0.0110
vt 0.8342 0.0110
vt 0.8280 0.3308
vt 0.8159 0.3348
vt 0.3216 0.4997
vt 0.3216 0.3350
vt 0.8159 0.0001
vt 0.8255 0.0025
vt 0.6786 0.3350
vt 0.6786 0.4997
vt 0.0184 0.3348
vt 0.0063 0.3308
vt 0.9969 0.0035
vt 0.9969 1.0001
vt -0.0029 0.9991
vt -0.0002 0.0006
vn -1.0000 0.0000 0.0000
vn 0.0000 0.5534 -0.8329
vn 1.0000 -0.0000 0.0000
vn 0.0000 0.4287 0.9034
vn 0.0000 -0.8377 0.5462
vn 0.0000 0.9423 0.3347
vn 0.0000 0.9320 -0.3624
vn 0.0000 1.0000 0.0000
vn 0.0000 -0.8807 -0.4736
vn 0.0000 -1.0000 0.0000
vn 0.0000 -0.3612 0.9325
vn 0.0000 0.0000 1.0000
vn 0.0000 -0.4565 -0.8897
vn 0.0000 0.0000 -1.0000
usemtl color
s off
f 30/1/1 29/2/1 31/3/1 32/4/1
usemtl color_Untitled.001
f 31/5/1 12/6/1 4/7/1 19/8/1
f 19/9/2 4/10/2 8/11/2 21/12/2
f 27/13/3 16/14/3 6/15/3 23/16/3
f 23/17/4 6/18/4 2/19/4 18/20/4
f 10/21/5 13/22/5 5/23/5 1/24/5
f 16/25/6 11/26/6 2/19/6 6/18/6
f 8/11/7 4/10/7 12/27/7 15/28/7
f 15/29/8 12/6/8 11/30/8 16/14/8
f 3/31/9 7/32/9 14/33/9 9/34/9
f 9/34/10 14/33/10 13/22/10 10/21/10
f 21/35/3 8/36/3 15/29/3 25/37/3
f 25/37/3 15/29/3 16/14/3 27/13/3
f 18/38/1 2/39/1 11/30/1 29/40/1
f 29/40/1 11/30/1 12/6/1 31/5/1
f 10/41/1 30/42/1 32/43/1 9/44/1
f 1/45/1 17/46/1 30/42/1 10/41/1
f 17/46/1 18/38/1 29/40/1 30/42/1
f 14/47/3 26/48/3 28/49/3 13/50/3
f 7/51/3 22/52/3 26/48/3 14/47/3
f 22/52/3 21/35/3 25/37/3 26/48/3
f 5/23/11 24/53/11 17/54/11 1/24/11
f 24/53/12 23/17/12 18/20/12 17/54/12
f 13/50/3 28/49/3 24/55/3 5/56/3
f 28/49/3 27/13/3 23/16/3 24/55/3
f 3/31/13 20/57/13 22/58/13 7/32/13
f 20/57/14 19/9/14 21/12/14 22/58/14
f 9/44/1 32/43/1 20/59/1 3/60/1
f 32/43/1 31/5/1 19/8/1 20/59/1
usemtl color_IMG_0798.JPG.001
f 26/61/3 25/62/3 27/63/3 28/64/3
